<?xml version="1.0" standalone="no"?>
<!DOCTYPE svg PUBLIC "-//W3C//DTD SVG 20010904//EN"
 "http://www.w3.org/TR/2001/REC-SVG-20010904/DTD/svg10.dtd">
<svg version="1.0" xmlns="http://www.w3.org/2000/svg"
 width="74.000000pt" height="74.000000pt" viewBox="0 0 74.000000 74.000000"
 preserveAspectRatio="xMidYMid meet">
<metadata>
Created by potrace 1.11, written by Peter Selinger 2001-2013
</metadata>
<g transform="translate(0.000000,74.000000) scale(0.100000,-0.100000)"
fill="#000000" stroke="none">
<path d="M301 634 c-77 -20 -93 -31 -81 -54 14 -26 -7 -37 -26 -14 -14 18 -14
18 -12 -6 3 -21 -1 -25 -21 -22 -17 1 -22 -2 -18 -12 4 -9 -1 -17 -12 -21 -10
-3 -18 -11 -17 -18 0 -7 -3 -12 -8 -12 -14 0 -26 -45 -20 -72 5 -18 3 -24 -5
-19 -13 8 -14 1 -12 -74 1 -30 7 -57 13 -61 6 -4 8 -11 4 -17 -7 -12 26 -74
58 -111 29 -32 101 -81 120 -81 28 0 38 36 20 71 -15 29 -15 31 0 26 18 -7 21
9 7 46 -7 18 -25 30 -72 46 -34 11 -67 18 -73 14 -6 -3 -8 -3 -4 2 4 4 2 15
-5 24 -10 14 -10 14 4 3 13 -10 152 -62 166 -62 8 0 -27 57 -45 73 -16 15 -25
16 -41 8 -13 -8 -22 -8 -26 -1 -4 6 -3 10 2 9 32 -6 32 5 -1 24 -22 12 -41 28
-42 35 -1 7 0 8 3 2 8 -16 23 -12 17 5 -4 8 -1 15 6 15 7 0 10 -8 7 -20 -3
-14 1 -24 15 -31 30 -16 31 -7 6 52 -27 60 -29 90 -10 97 10 3 12 -4 7 -32 -6
-30 -5 -35 8 -31 11 5 13 0 10 -18 -5 -23 17 -80 35 -91 5 -3 7 19 4 49 -6 68
11 111 50 131 22 11 29 21 25 35 -3 10 -1 17 4 13 5 -3 9 -12 9 -20 0 -17 12
-18 29 -1 11 10 12 9 6 -2 -4 -7 -27 -22 -51 -32 -26 -12 -45 -28 -49 -42 -18
-62 -18 -60 1 -53 16 6 17 5 2 -11 -13 -15 -14 -24 -4 -53 14 -43 40 -46 44
-6 3 22 6 26 13 15 7 -12 9 -11 9 2 0 15 48 45 57 35 2 -2 -4 -7 -14 -10 -10
-3 -30 -30 -45 -58 -25 -49 -27 -56 -15 -89 l13 -37 29 24 c19 15 29 31 27 44
-4 27 30 98 69 140 35 38 30 24 -10 -28 -21 -28 -22 -35 -10 -44 11 -8 11 -9
-3 -4 -10 3 -17 2 -16 -2 1 -4 -2 -15 -6 -24 -4 -9 -6 -25 -4 -35 4 -15 11
-11 46 24 45 47 59 90 46 145 -12 52 -11 65 3 65 16 0 17 -13 3 -22 -8 -5 -7
-12 2 -22 7 -9 12 -18 11 -20 -2 -1 -3 -13 -3 -24 0 -19 2 -20 17 -8 9 8 22
27 29 44 7 16 13 23 14 15 0 -8 -9 -30 -20 -47 l-20 -33 22 0 c17 0 19 -3 10
-12 -8 -8 -15 -8 -26 2 -14 10 -19 5 -37 -36 -11 -27 -28 -58 -37 -68 -16 -18
-16 -19 1 -13 10 4 27 7 37 7 10 0 21 8 24 18 8 23 63 55 63 36 0 -8 -8 -14
-17 -14 -18 0 -47 -27 -38 -35 3 -3 32 -8 65 -11 69 -7 69 -7 72 95 2 45 0 53
-13 48 -10 -4 -16 -1 -16 7 0 8 5 16 12 18 9 3 7 14 -5 40 -9 20 -17 41 -17
48 0 17 -104 116 -129 123 -17 4 -21 0 -21 -21 -1 -25 -2 -26 -15 -9 -7 11
-11 25 -8 33 3 8 0 14 -5 14 -6 0 -12 -10 -14 -22 -2 -12 -9 -24 -17 -26 -11
-4 -13 2 -8 27 4 21 3 31 -6 32 -58 6 -80 4 -126 -7z m15 -59 c-3 -9 -10 -13
-16 -10 -12 7 -13 48 -3 59 11 11 27 -30 19 -49z m54 9 c0 -8 -4 -12 -10 -9
-5 3 -10 13 -10 21 0 8 5 12 10 9 6 -3 10 -13 10 -21z m-110 -54 c0 -13 -5
-18 -15 -14 -8 4 -15 12 -15 20 0 8 7 14 15 14 8 0 15 -9 15 -20z m322 -12
c-7 -7 -12 -8 -12 -2 0 6 3 14 7 17 3 4 9 5 12 2 2 -3 -1 -11 -7 -17z m-282
-9 c0 -11 -4 -17 -10 -14 -5 3 -10 13 -10 21 0 8 5 14 10 14 6 0 10 -9 10 -21z
m185 -9 c2 -22 -11 -27 -18 -7 -5 15 3 40 11 32 3 -3 6 -14 7 -25z m-48 -12
c4 -31 -35 -67 -48 -46 -10 15 8 38 30 38 14 1 14 2 -1 14 -10 7 -15 16 -11
20 12 12 26 0 30 -26z m-222 12 c3 -5 1 -10 -4 -10 -6 0 -11 5 -11 10 0 6 2
10 4 10 3 0 8 -4 11 -10z m40 -10 c-3 -5 -12 -10 -18 -10 -7 0 -6 4 3 10 19
12 23 12 15 0z m-96 -14 c9 -11 8 -15 -5 -20 -8 -3 -17 -6 -18 -6 -1 0 -2 9
-3 20 -2 23 10 26 26 6z m459 7 c-10 -2 -18 -9 -18 -14 0 -5 -4 -9 -10 -9 -5
0 -7 7 -4 15 4 8 16 14 28 14 16 -1 17 -2 4 -6z m-385 -33 c-3 -12 -8 -19 -11
-16 -5 6 5 36 12 36 2 0 2 -9 -1 -20z m105 -2 c-2 -6 -10 -14 -16 -16 -7 -2
-10 2 -6 12 7 18 28 22 22 4z m-197 -35 c11 -29 4 -43 -19 -42 -15 1 -15 2 1
6 22 6 22 15 -3 31 -24 15 -28 44 -4 35 8 -3 20 -17 25 -30z m509 27 c0 -5 -7
-10 -15 -10 -8 0 -15 5 -15 10 0 6 7 10 15 10 8 0 15 -4 15 -10z m-403 -42
c-3 -8 -6 -5 -6 6 -1 11 2 17 5 13 3 -3 4 -12 1 -19z m93 -8 c-6 -11 -13 -20
-15 -20 -3 0 -5 9 -5 20 0 11 7 20 15 20 13 0 14 -4 5 -20z m295 -28 c-8 -8
-25 10 -19 20 4 6 9 5 15 -3 4 -7 6 -15 4 -17z m-505 -6 c0 -2 -11 -11 -25
-20 -25 -17 -25 -16 -13 4 11 17 38 29 38 16z m180 -15 c0 -6 -4 -13 -10 -16
-5 -3 -10 1 -10 9 0 9 5 16 10 16 6 0 10 -4 10 -9z m94 -10 c3 -5 -1 -11 -9
-15 -15 -6 -29 7 -18 18 9 9 21 8 27 -3z m154 -22 c-2 -6 -8 -10 -13 -10 -5 0
-11 4 -13 10 -2 6 4 11 13 11 9 0 15 -5 13 -11z m119 5 c-3 -3 -12 -4 -19 -1
-8 3 -5 6 6 6 11 1 17 -2 13 -5z m-207 -33 c0 -13 -26 -32 -33 -24 -8 7 11 33
24 33 5 0 9 -4 9 -9z m-230 -11 c0 -5 -9 -10 -21 -10 -11 0 -17 5 -14 10 3 6
13 10 21 10 8 0 14 -4 14 -10z m417 -14 c-7 -20 -36 -19 -34 2 1 13 7 18 19
14 11 -2 17 -10 15 -16z m-292 -6 c-3 -5 -13 -10 -21 -10 -8 0 -12 5 -9 10 3
6 13 10 21 10 8 0 12 -4 9 -10z"/>
<path d="M490 224 c-36 -13 -59 -28 -55 -35 3 -4 -9 -10 -25 -14 -38 -8 -64
-45 -55 -77 29 -95 144 -89 245 12 36 36 76 98 68 105 -7 6 -164 14 -178 9z
m40 -30 c0 -14 -3 -14 -15 -4 -8 7 -15 14 -15 16 0 2 7 4 15 4 8 0 15 -7 15
-16z m-39 -21 c12 -16 12 -17 -1 -7 -8 6 -22 14 -30 17 -13 5 -12 6 1 6 9 1
23 -7 30 -16z m86 0 c-9 -9 -19 -14 -23 -11 -10 10 6 28 24 28 15 0 15 -1 -1
-17z m-42 -43 c3 -5 1 -10 -4 -10 -6 0 -11 5 -11 10 0 6 2 10 4 10 3 0 8 -4
11 -10z"/>
</g>
</svg>
