<svg width="236" height="43" viewBox="0 0 236 43" fill="none" xmlns="http://www.w3.org/2000/svg">
<rect x="115" y="3" width="32.84" height="24.5986" rx="5" fill="white"/>
<g clip-path="url(#clip0)">
<path d="M141.856 22.3599H141.32V12.4011C141.32 12.2138 141.176 12.062 140.999 12.062C140.821 12.062 140.677 12.2138 140.677 12.4011V22.3599H137.997C137.819 22.3599 137.676 22.5117 137.676 22.699C137.676 22.8863 137.819 23.0381 137.997 23.0381H141.724V23.1813C141.724 23.666 141.35 24.0604 140.891 24.0604H121.949C121.489 24.0604 121.116 23.666 121.116 23.1813V23.0381H136.628C136.805 23.0381 136.949 22.8863 136.949 22.699C136.949 22.5117 136.805 22.3599 136.628 22.3599H122.162V8.96586C122.162 8.71919 122.353 8.51851 122.586 8.51851H133.112C133.29 8.51851 133.433 8.36669 133.433 8.17944C133.433 7.99218 133.29 7.84036 133.112 7.84036H122.586C121.998 7.84036 121.52 8.34527 121.52 8.96586V22.3599H120.983C120.702 22.3599 120.473 22.6015 120.473 22.8984V23.1813C120.473 24.04 121.135 24.7385 121.949 24.7385H140.891C141.705 24.7385 142.367 24.04 142.367 23.1813V22.8984C142.367 22.6015 142.138 22.3599 141.856 22.3599Z" fill="#386F96"/>
<path d="M133.112 9.87485C133.29 9.87485 133.433 9.72303 133.433 9.53577C133.433 9.34852 133.29 9.1967 133.112 9.1967H123.126C122.949 9.1967 122.805 9.34852 122.805 9.53577V21.3427C122.805 21.53 122.949 21.6818 123.126 21.6818H125.909C126.086 21.6818 126.23 21.53 126.23 21.3427C126.23 21.1555 126.086 21.0037 125.909 21.0037H123.447V9.87485H133.112Z" fill="#386F96"/>
<path d="M133.562 15.4059V13.1643C133.562 12.549 133.088 12.0484 132.505 12.0484H130.49L129.898 11.843C129.756 11.794 129.6 11.8197 129.479 11.9118C129.359 12.004 129.287 12.1527 129.287 12.3098V15.4059C129.287 16.2228 129.7 16.9396 130.318 17.3357V17.7098L128.907 18.9464C128.602 19.2136 128.427 19.6067 128.427 20.0249V21.0035H127.278C127.1 21.0035 126.957 21.1554 126.957 21.3426C126.957 21.5299 127.1 21.6817 127.278 21.6817H139.714C139.891 21.6817 140.035 21.5299 140.035 21.3426V12.4335C140.035 12.2462 139.891 12.0944 139.714 12.0944C139.536 12.0944 139.392 12.2462 139.392 12.4335V21.0036H134.412V20.025C134.412 19.6068 134.238 19.2137 133.933 18.9465L132.522 17.7099V17.3412C133.145 16.9465 133.562 16.2268 133.562 15.4059V15.4059ZM130.338 12.7096C130.37 12.7208 130.404 12.7265 130.438 12.7265H132.505C132.734 12.7265 132.92 12.9229 132.92 13.1643V13.8467H129.929V12.5679L130.338 12.7096ZM129.929 14.5248H132.92V15.4059C132.92 16.2761 132.249 16.984 131.425 16.984C130.6 16.984 129.929 16.276 129.929 15.4059V14.5248H129.929ZM133.77 20.025V21.0036H129.07V20.025C129.07 19.8091 129.16 19.6061 129.318 19.4682L130.524 18.4104C130.725 18.7047 131.051 18.8969 131.42 18.8969C131.789 18.8969 132.115 18.7047 132.315 18.4104L133.522 19.4682C133.68 19.6062 133.77 19.8091 133.77 20.025V20.025ZM131.879 17.7338C131.879 18.0013 131.673 18.2188 131.42 18.2188C131.167 18.2188 130.96 18.0012 130.96 17.7338V17.608C131.11 17.6431 131.265 17.6621 131.424 17.6621C131.581 17.6621 131.733 17.6439 131.879 17.6102V17.7338H131.879Z" fill="#386F96"/>
<path d="M140.589 4.36926H135.853C134.873 4.36926 134.076 5.21098 134.076 6.24556V11.7313C134.076 11.9778 134.217 12.1924 134.436 12.278C134.5 12.3029 134.566 12.315 134.631 12.315C134.788 12.315 134.94 12.2434 135.047 12.1108L135.612 11.4162H137.537C137.714 11.4162 137.858 11.2644 137.858 11.0772C137.858 10.8899 137.714 10.7381 137.537 10.7381H135.464C135.371 10.7381 135.281 10.7813 135.22 10.8564L134.718 11.4741V6.24556C134.718 5.58491 135.228 5.04741 135.853 5.04741H140.589C141.215 5.04741 141.724 5.58491 141.724 6.24556V9.53999C141.724 10.2006 141.215 10.7381 140.589 10.7381H138.906C138.728 10.7381 138.585 10.8899 138.585 11.0772C138.585 11.2645 138.728 11.4163 138.906 11.4163H140.589C141.569 11.4163 142.367 10.5746 142.367 9.53999V6.24556C142.367 5.21098 141.569 4.36926 140.589 4.36926V4.36926Z" fill="#386F96"/>
</g>
<path d="M11.7891 14.6055H5.03906V19.1758H12.9609V22H1.52344V4.9375H12.9375V7.78516H5.03906V11.8516H11.7891V14.6055ZM24.5156 19.1758H31.9805V22H21V4.9375H24.5156V19.1758ZM39.6211 22.2344C37.7617 22.2344 36.2461 21.6641 35.0742 20.5234C33.9102 19.3828 33.3281 17.8633 33.3281 15.9648V15.6367C33.3281 14.3633 33.5742 13.2266 34.0664 12.2266C34.5586 11.2188 35.2539 10.4453 36.1523 9.90625C37.0586 9.35938 38.0898 9.08594 39.2461 9.08594C40.9805 9.08594 42.3438 9.63281 43.3359 10.7266C44.3359 11.8203 44.8359 13.3711 44.8359 15.3789V16.7617H36.7617C36.8711 17.5898 37.1992 18.2539 37.7461 18.7539C38.3008 19.2539 39 19.5039 39.8438 19.5039C41.1484 19.5039 42.168 19.0312 42.9023 18.0859L44.5664 19.9492C44.0586 20.668 43.3711 21.2305 42.5039 21.6367C41.6367 22.0352 40.6758 22.2344 39.6211 22.2344ZM39.2344 11.8281C38.5625 11.8281 38.0156 12.0547 37.5938 12.5078C37.1797 12.9609 36.9141 13.6094 36.7969 14.4531H41.5078V14.1836C41.4922 13.4336 41.2891 12.8555 40.8984 12.4492C40.5078 12.0352 39.9531 11.8281 39.2344 11.8281ZM54.1172 22C53.9609 21.6953 53.8477 21.3164 53.7773 20.8633C52.957 21.7773 51.8906 22.2344 50.5781 22.2344C49.3359 22.2344 48.3047 21.875 47.4844 21.1562C46.6719 20.4375 46.2656 19.5312 46.2656 18.4375C46.2656 17.0938 46.7617 16.0625 47.7539 15.3438C48.7539 14.625 50.1953 14.2617 52.0781 14.2539H53.6367V13.5273C53.6367 12.9414 53.4844 12.4727 53.1797 12.1211C52.8828 11.7695 52.4102 11.5938 51.7617 11.5938C51.1914 11.5938 50.7422 11.7305 50.4141 12.0039C50.0938 12.2773 49.9336 12.6523 49.9336 13.1289H46.5469C46.5469 12.3945 46.7734 11.7148 47.2266 11.0898C47.6797 10.4648 48.3203 9.97656 49.1484 9.625C49.9766 9.26562 50.9062 9.08594 51.9375 9.08594C53.5 9.08594 54.7383 9.48047 55.6523 10.2695C56.5742 11.0508 57.0352 12.1523 57.0352 13.5742V19.0703C57.043 20.2734 57.2109 21.1836 57.5391 21.8008V22H54.1172ZM51.3164 19.6445C51.8164 19.6445 52.2773 19.5352 52.6992 19.3164C53.1211 19.0898 53.4336 18.7891 53.6367 18.4141V16.2344H52.3711C50.6758 16.2344 49.7734 16.8203 49.6641 17.9922L49.6523 18.1914C49.6523 18.6133 49.8008 18.9609 50.0977 19.2344C50.3945 19.5078 50.8008 19.6445 51.3164 19.6445ZM66.7617 12.4961C66.3008 12.4336 65.8945 12.4023 65.543 12.4023C64.2617 12.4023 63.4219 12.8359 63.0234 13.7031V22H59.6367V9.32031H62.8359L62.9297 10.832C63.6094 9.66797 64.5508 9.08594 65.7539 9.08594C66.1289 9.08594 66.4805 9.13672 66.8086 9.23828L66.7617 12.4961ZM71.5195 9.32031L71.625 10.7852C72.5312 9.65234 73.7461 9.08594 75.2695 9.08594C76.6133 9.08594 77.6133 9.48047 78.2695 10.2695C78.9258 11.0586 79.2617 12.2383 79.2773 13.8086V22H75.8906V13.8906C75.8906 13.1719 75.7344 12.6523 75.4219 12.332C75.1094 12.0039 74.5898 11.8398 73.8633 11.8398C72.9102 11.8398 72.1953 12.2461 71.7188 13.0586V22H68.332V9.32031H71.5195ZM87.6914 22.2344C85.832 22.2344 84.3164 21.6641 83.1445 20.5234C81.9805 19.3828 81.3984 17.8633 81.3984 15.9648V15.6367C81.3984 14.3633 81.6445 13.2266 82.1367 12.2266C82.6289 11.2188 83.3242 10.4453 84.2227 9.90625C85.1289 9.35938 86.1602 9.08594 87.3164 9.08594C89.0508 9.08594 90.4141 9.63281 91.4062 10.7266C92.4062 11.8203 92.9062 13.3711 92.9062 15.3789V16.7617H84.832C84.9414 17.5898 85.2695 18.2539 85.8164 18.7539C86.3711 19.2539 87.0703 19.5039 87.9141 19.5039C89.2188 19.5039 90.2383 19.0312 90.9727 18.0859L92.6367 19.9492C92.1289 20.668 91.4414 21.2305 90.5742 21.6367C89.707 22.0352 88.7461 22.2344 87.6914 22.2344ZM87.3047 11.8281C86.6328 11.8281 86.0859 12.0547 85.6641 12.5078C85.25 12.9609 84.9844 13.6094 84.8672 14.4531H89.5781V14.1836C89.5625 13.4336 89.3594 12.8555 88.9688 12.4492C88.5781 12.0352 88.0234 11.8281 87.3047 11.8281ZM94.3125 15.5664C94.3125 13.5898 94.7539 12.0156 95.6367 10.8438C96.5273 9.67188 97.7422 9.08594 99.2812 9.08594C100.516 9.08594 101.535 9.54688 102.34 10.4688V4H105.738V22H102.68L102.516 20.6523C101.672 21.707 100.586 22.2344 99.2578 22.2344C97.7656 22.2344 96.5664 21.6484 95.6602 20.4766C94.7617 19.2969 94.3125 17.6602 94.3125 15.5664ZM97.6992 15.8125C97.6992 17 97.9062 17.9102 98.3203 18.543C98.7344 19.1758 99.3359 19.4922 100.125 19.4922C101.172 19.4922 101.91 19.0508 102.34 18.168V13.1641C101.918 12.2812 101.188 11.8398 100.148 11.8398C98.5156 11.8398 97.6992 13.1641 97.6992 15.8125Z" fill="white"/>
<path d="M8.47656 36.8418C8.35352 37.8945 7.96387 38.708 7.30762 39.2822C6.65592 39.8519 5.78776 40.1367 4.70312 40.1367C3.52734 40.1367 2.58398 39.7152 1.87305 38.8721C1.16667 38.029 0.813477 36.901 0.813477 35.4883V34.5312C0.813477 33.6061 0.977539 32.7926 1.30566 32.0908C1.63835 31.389 2.10775 30.8512 2.71387 30.4775C3.31999 30.0993 4.02181 29.9102 4.81934 29.9102C5.87663 29.9102 6.72428 30.2064 7.3623 30.7988C8.00033 31.3867 8.37174 32.2025 8.47656 33.2461H7.15723C7.04329 32.4531 6.79492 31.8789 6.41211 31.5234C6.03385 31.168 5.50293 30.9902 4.81934 30.9902C3.98079 30.9902 3.32227 31.3001 2.84375 31.9199C2.36979 32.5397 2.13281 33.4215 2.13281 34.5654V35.5293C2.13281 36.6094 2.3584 37.4684 2.80957 38.1064C3.26074 38.7445 3.89193 39.0635 4.70312 39.0635C5.43229 39.0635 5.99056 38.8994 6.37793 38.5713C6.76986 38.2386 7.02962 37.6621 7.15723 36.8418H8.47656ZM9.74121 36.2334C9.74121 35.5088 9.88249 34.8571 10.165 34.2783C10.4521 33.6995 10.8486 33.2529 11.3545 32.9385C11.8649 32.624 12.446 32.4668 13.0977 32.4668C14.1048 32.4668 14.9183 32.8154 15.5381 33.5127C16.1624 34.21 16.4746 35.1374 16.4746 36.2949V36.3838C16.4746 37.1038 16.3356 37.751 16.0576 38.3252C15.7842 38.8949 15.39 39.3392 14.875 39.6582C14.3646 39.9772 13.7767 40.1367 13.1113 40.1367C12.1087 40.1367 11.2952 39.7881 10.6709 39.0908C10.0511 38.3936 9.74121 37.4707 9.74121 36.3223V36.2334ZM11.0127 36.3838C11.0127 37.2041 11.2018 37.8626 11.5801 38.3594C11.9629 38.8561 12.4733 39.1045 13.1113 39.1045C13.7539 39.1045 14.2643 38.8538 14.6426 38.3525C15.0208 37.8467 15.21 37.1403 15.21 36.2334C15.21 35.4222 15.0163 34.766 14.6289 34.2646C14.2461 33.7588 13.7357 33.5059 13.0977 33.5059C12.4733 33.5059 11.9697 33.7542 11.5869 34.251C11.2041 34.7477 11.0127 35.4587 11.0127 36.3838ZM19.25 32.6035L19.2842 33.4238C19.8265 32.7858 20.5579 32.4668 21.4785 32.4668C22.513 32.4668 23.2171 32.8633 23.5908 33.6562C23.8369 33.3008 24.1559 33.0137 24.5479 32.7949C24.9443 32.5762 25.4115 32.4668 25.9492 32.4668C27.5716 32.4668 28.3965 33.3258 28.4238 35.0439V40H27.1592V35.1191C27.1592 34.5905 27.0384 34.1963 26.7969 33.9365C26.5553 33.6722 26.1497 33.54 25.5801 33.54C25.1107 33.54 24.721 33.6813 24.4111 33.9639C24.1012 34.2419 23.9212 34.6178 23.8711 35.0918V40H22.5996V35.1533C22.5996 34.0778 22.0732 33.54 21.0205 33.54C20.1911 33.54 19.6237 33.8932 19.3184 34.5996V40H18.0537V32.6035H19.25ZM36.5859 36.3838C36.5859 37.5094 36.3285 38.4163 35.8135 39.1045C35.2985 39.7926 34.6012 40.1367 33.7217 40.1367C32.8239 40.1367 32.1175 39.8519 31.6025 39.2822V42.8438H30.3379V32.6035H31.4932L31.5547 33.4238C32.0697 32.7858 32.7852 32.4668 33.7012 32.4668C34.5898 32.4668 35.2917 32.8018 35.8066 33.4717C36.3262 34.1416 36.5859 35.0736 36.5859 36.2676V36.3838ZM35.3213 36.2402C35.3213 35.4062 35.1436 34.7477 34.7881 34.2646C34.4326 33.7816 33.945 33.54 33.3252 33.54C32.5596 33.54 31.9854 33.8796 31.6025 34.5586V38.0928C31.9808 38.7673 32.5596 39.1045 33.3389 39.1045C33.945 39.1045 34.4258 38.8652 34.7812 38.3867C35.1413 37.9036 35.3213 37.1882 35.3213 36.2402ZM41.7744 33.7383C41.583 33.7064 41.3757 33.6904 41.1523 33.6904C40.3229 33.6904 39.7601 34.0436 39.4639 34.75V40H38.1992V32.6035H39.4297L39.4502 33.458C39.8649 32.7972 40.4528 32.4668 41.2139 32.4668C41.46 32.4668 41.6468 32.4987 41.7744 32.5625V33.7383ZM45.876 40.1367C44.8734 40.1367 44.0576 39.8086 43.4287 39.1523C42.7998 38.4915 42.4854 37.6097 42.4854 36.5068V36.2744C42.4854 35.5407 42.6243 34.8867 42.9023 34.3125C43.1849 33.7337 43.5768 33.2826 44.0781 32.959C44.584 32.6309 45.1309 32.4668 45.7188 32.4668C46.6803 32.4668 47.4277 32.7835 47.9609 33.417C48.4941 34.0505 48.7607 34.9574 48.7607 36.1377V36.6641H43.75C43.7682 37.3932 43.9801 37.9834 44.3857 38.4346C44.7959 38.8812 45.3154 39.1045 45.9443 39.1045C46.391 39.1045 46.7692 39.0133 47.0791 38.8311C47.389 38.6488 47.6602 38.4072 47.8926 38.1064L48.665 38.708C48.0452 39.6605 47.1156 40.1367 45.876 40.1367ZM45.7188 33.5059C45.2083 33.5059 44.7799 33.6927 44.4336 34.0664C44.0872 34.4355 43.873 34.9551 43.791 35.625H47.4961V35.5293C47.4596 34.8867 47.2865 34.39 46.9766 34.0391C46.6667 33.6836 46.2474 33.5059 45.7188 33.5059ZM59.9512 36.3838C59.9512 37.5094 59.6937 38.4163 59.1787 39.1045C58.6637 39.7926 57.9665 40.1367 57.0869 40.1367C56.1891 40.1367 55.4827 39.8519 54.9678 39.2822V42.8438H53.7031V32.6035H54.8584L54.9199 33.4238C55.4349 32.7858 56.1504 32.4668 57.0664 32.4668C57.9551 32.4668 58.6569 32.8018 59.1719 33.4717C59.6914 34.1416 59.9512 35.0736 59.9512 36.2676V36.3838ZM58.6865 36.2402C58.6865 35.4062 58.5088 34.7477 58.1533 34.2646C57.7979 33.7816 57.3102 33.54 56.6904 33.54C55.9248 33.54 55.3506 33.8796 54.9678 34.5586V38.0928C55.346 38.7673 55.9248 39.1045 56.7041 39.1045C57.3102 39.1045 57.791 38.8652 58.1465 38.3867C58.5065 37.9036 58.6865 37.1882 58.6865 36.2402ZM66.1309 40C66.0579 39.8542 65.9987 39.5944 65.9531 39.2207C65.3652 39.8314 64.6634 40.1367 63.8477 40.1367C63.1185 40.1367 62.5192 39.9316 62.0498 39.5215C61.585 39.1068 61.3525 38.5827 61.3525 37.9492C61.3525 37.179 61.6442 36.582 62.2275 36.1582C62.8154 35.7298 63.6403 35.5156 64.7021 35.5156H65.9326V34.9346C65.9326 34.4925 65.8005 34.1416 65.5361 33.8818C65.2718 33.6175 64.8822 33.4854 64.3672 33.4854C63.916 33.4854 63.5378 33.5993 63.2324 33.8271C62.9271 34.055 62.7744 34.3307 62.7744 34.6543H61.5029C61.5029 34.2852 61.6328 33.9297 61.8926 33.5879C62.1569 33.2415 62.5124 32.9681 62.959 32.7676C63.4102 32.5671 63.9046 32.4668 64.4424 32.4668C65.2946 32.4668 65.9622 32.681 66.4453 33.1094C66.9284 33.5332 67.179 34.1188 67.1973 34.8662V38.2705C67.1973 38.9495 67.2839 39.4896 67.457 39.8906V40H66.1309ZM64.0322 39.0361C64.4287 39.0361 64.8047 38.9336 65.1602 38.7285C65.5156 38.5234 65.7731 38.2568 65.9326 37.9287V36.4111H64.9414C63.3919 36.4111 62.6172 36.8646 62.6172 37.7715C62.6172 38.168 62.7493 38.4779 63.0137 38.7012C63.278 38.9245 63.6175 39.0361 64.0322 39.0361ZM70.5537 40H69.2891V29.5H70.5537V40ZM75.6533 40.1367C74.6507 40.1367 73.835 39.8086 73.2061 39.1523C72.5771 38.4915 72.2627 37.6097 72.2627 36.5068V36.2744C72.2627 35.5407 72.4017 34.8867 72.6797 34.3125C72.9622 33.7337 73.3542 33.2826 73.8555 32.959C74.3613 32.6309 74.9082 32.4668 75.4961 32.4668C76.4577 32.4668 77.2051 32.7835 77.7383 33.417C78.2715 34.0505 78.5381 34.9574 78.5381 36.1377V36.6641H73.5273C73.5456 37.3932 73.7575 37.9834 74.1631 38.4346C74.5732 38.8812 75.0928 39.1045 75.7217 39.1045C76.1683 39.1045 76.5465 39.0133 76.8564 38.8311C77.1663 38.6488 77.4375 38.4072 77.6699 38.1064L78.4424 38.708C77.8226 39.6605 76.8929 40.1367 75.6533 40.1367ZM75.4961 33.5059C74.9857 33.5059 74.5573 33.6927 74.2109 34.0664C73.8646 34.4355 73.6504 34.9551 73.5684 35.625H77.2734V35.5293C77.237 34.8867 77.0638 34.39 76.7539 34.0391C76.444 33.6836 76.0247 33.5059 75.4961 33.5059ZM84.3145 38.0381C84.3145 37.6963 84.1846 37.432 83.9248 37.2451C83.6696 37.0537 83.2207 36.8896 82.5781 36.7529C81.9401 36.6162 81.432 36.4521 81.0537 36.2607C80.68 36.0693 80.402 35.8415 80.2197 35.5771C80.042 35.3128 79.9531 34.9984 79.9531 34.6338C79.9531 34.0277 80.2083 33.515 80.7188 33.0957C81.2337 32.6764 81.89 32.4668 82.6875 32.4668C83.526 32.4668 84.2051 32.6833 84.7246 33.1162C85.2487 33.5492 85.5107 34.1029 85.5107 34.7773H84.2393C84.2393 34.431 84.0911 34.1325 83.7949 33.8818C83.5033 33.6312 83.1341 33.5059 82.6875 33.5059C82.2272 33.5059 81.8672 33.6061 81.6074 33.8066C81.3477 34.0072 81.2178 34.2692 81.2178 34.5928C81.2178 34.8981 81.3385 35.1283 81.5801 35.2832C81.8216 35.4382 82.2568 35.5863 82.8857 35.7275C83.5192 35.8688 84.0319 36.0374 84.4238 36.2334C84.8158 36.4294 85.1051 36.6663 85.292 36.9443C85.4834 37.2178 85.5791 37.5527 85.5791 37.9492C85.5791 38.61 85.3148 39.141 84.7861 39.542C84.2575 39.9385 83.5716 40.1367 82.7285 40.1367C82.1361 40.1367 81.612 40.0319 81.1562 39.8223C80.7005 39.6126 80.3428 39.321 80.083 38.9473C79.8278 38.569 79.7002 38.1611 79.7002 37.7236H80.9648C80.9876 38.1475 81.1562 38.4847 81.4707 38.7354C81.7897 38.9814 82.209 39.1045 82.7285 39.1045C83.207 39.1045 83.5898 39.0088 83.877 38.8174C84.1686 38.6214 84.3145 38.3617 84.3145 38.0381ZM88.9424 30.8125V32.6035H90.3232V33.5811H88.9424V38.168C88.9424 38.4642 89.0039 38.6875 89.127 38.8379C89.25 38.9837 89.4596 39.0566 89.7559 39.0566C89.9017 39.0566 90.1022 39.0293 90.3574 38.9746V40C90.0247 40.0911 89.7012 40.1367 89.3867 40.1367C88.8216 40.1367 88.3955 39.9658 88.1084 39.624C87.8213 39.2822 87.6777 38.7969 87.6777 38.168V33.5811H86.3311V32.6035H87.6777V30.8125H88.9424ZM95.3818 33.7383C95.1904 33.7064 94.9831 33.6904 94.7598 33.6904C93.9303 33.6904 93.3675 34.0436 93.0713 34.75V40H91.8066V32.6035H93.0371L93.0576 33.458C93.4723 32.7972 94.0602 32.4668 94.8213 32.4668C95.0674 32.4668 95.2542 32.4987 95.3818 32.5625V33.7383ZM100.844 40C100.771 39.8542 100.712 39.5944 100.666 39.2207C100.078 39.8314 99.3763 40.1367 98.5605 40.1367C97.8314 40.1367 97.2321 39.9316 96.7627 39.5215C96.2979 39.1068 96.0654 38.5827 96.0654 37.9492C96.0654 37.179 96.3571 36.582 96.9404 36.1582C97.5283 35.7298 98.3532 35.5156 99.415 35.5156H100.646V34.9346C100.646 34.4925 100.513 34.1416 100.249 33.8818C99.9847 33.6175 99.5951 33.4854 99.0801 33.4854C98.6289 33.4854 98.2507 33.5993 97.9453 33.8271C97.64 34.055 97.4873 34.3307 97.4873 34.6543H96.2158C96.2158 34.2852 96.3457 33.9297 96.6055 33.5879C96.8698 33.2415 97.2253 32.9681 97.6719 32.7676C98.123 32.5671 98.6175 32.4668 99.1553 32.4668C100.007 32.4668 100.675 32.681 101.158 33.1094C101.641 33.5332 101.892 34.1188 101.91 34.8662V38.2705C101.91 38.9495 101.997 39.4896 102.17 39.8906V40H100.844ZM98.7451 39.0361C99.1416 39.0361 99.5176 38.9336 99.873 38.7285C100.229 38.5234 100.486 38.2568 100.646 37.9287V36.4111H99.6543C98.1048 36.4111 97.3301 36.8646 97.3301 37.7715C97.3301 38.168 97.4622 38.4779 97.7266 38.7012C97.9909 38.9245 98.3304 39.0361 98.7451 39.0361ZM108.199 38.0381C108.199 37.6963 108.069 37.432 107.81 37.2451C107.554 37.0537 107.105 36.8896 106.463 36.7529C105.825 36.6162 105.317 36.4521 104.938 36.2607C104.565 36.0693 104.287 35.8415 104.104 35.5771C103.927 35.3128 103.838 34.9984 103.838 34.6338C103.838 34.0277 104.093 33.515 104.604 33.0957C105.118 32.6764 105.775 32.4668 106.572 32.4668C107.411 32.4668 108.09 32.6833 108.609 33.1162C109.133 33.5492 109.396 34.1029 109.396 34.7773H108.124C108.124 34.431 107.976 34.1325 107.68 33.8818C107.388 33.6312 107.019 33.5059 106.572 33.5059C106.112 33.5059 105.752 33.6061 105.492 33.8066C105.232 34.0072 105.103 34.2692 105.103 34.5928C105.103 34.8981 105.223 35.1283 105.465 35.2832C105.706 35.4382 106.142 35.5863 106.771 35.7275C107.404 35.8688 107.917 36.0374 108.309 36.2334C108.701 36.4294 108.99 36.6663 109.177 36.9443C109.368 37.2178 109.464 37.5527 109.464 37.9492C109.464 38.61 109.2 39.141 108.671 39.542C108.142 39.9385 107.456 40.1367 106.613 40.1367C106.021 40.1367 105.497 40.0319 105.041 39.8223C104.585 39.6126 104.228 39.321 103.968 38.9473C103.713 38.569 103.585 38.1611 103.585 37.7236H104.85C104.872 38.1475 105.041 38.4847 105.355 38.7354C105.674 38.9814 106.094 39.1045 106.613 39.1045C107.092 39.1045 107.475 39.0088 107.762 38.8174C108.053 38.6214 108.199 38.3617 108.199 38.0381ZM114.249 36.2334C114.249 35.5088 114.39 34.8571 114.673 34.2783C114.96 33.6995 115.356 33.2529 115.862 32.9385C116.373 32.624 116.954 32.4668 117.605 32.4668C118.613 32.4668 119.426 32.8154 120.046 33.5127C120.67 34.21 120.982 35.1374 120.982 36.2949V36.3838C120.982 37.1038 120.843 37.751 120.565 38.3252C120.292 38.8949 119.898 39.3392 119.383 39.6582C118.872 39.9772 118.285 40.1367 117.619 40.1367C116.617 40.1367 115.803 39.7881 115.179 39.0908C114.559 38.3936 114.249 37.4707 114.249 36.3223V36.2334ZM115.521 36.3838C115.521 37.2041 115.71 37.8626 116.088 38.3594C116.471 38.8561 116.981 39.1045 117.619 39.1045C118.262 39.1045 118.772 38.8538 119.15 38.3525C119.529 37.8467 119.718 37.1403 119.718 36.2334C119.718 35.4222 119.524 34.766 119.137 34.2646C118.754 33.7588 118.243 33.5059 117.605 33.5059C116.981 33.5059 116.478 33.7542 116.095 34.251C115.712 34.7477 115.521 35.4587 115.521 36.3838ZM123.765 32.6035L123.806 33.5332C124.371 32.8223 125.109 32.4668 126.021 32.4668C127.584 32.4668 128.372 33.3486 128.386 35.1123V40H127.121V35.1055C127.117 34.5723 126.993 34.1781 126.752 33.9229C126.515 33.6676 126.144 33.54 125.638 33.54C125.228 33.54 124.868 33.6494 124.558 33.8682C124.248 34.0869 124.006 34.374 123.833 34.7295V40H122.568V32.6035H123.765ZM131.667 40H130.402V29.5H131.667V40ZM135.071 40H133.807V32.6035H135.071V40ZM133.704 30.6416C133.704 30.4365 133.766 30.2633 133.889 30.1221C134.016 29.9808 134.203 29.9102 134.449 29.9102C134.695 29.9102 134.882 29.9808 135.01 30.1221C135.137 30.2633 135.201 30.4365 135.201 30.6416C135.201 30.8467 135.137 31.0176 135.01 31.1543C134.882 31.291 134.695 31.3594 134.449 31.3594C134.203 31.3594 134.016 31.291 133.889 31.1543C133.766 31.0176 133.704 30.8467 133.704 30.6416ZM138.298 32.6035L138.339 33.5332C138.904 32.8223 139.642 32.4668 140.554 32.4668C142.117 32.4668 142.905 33.3486 142.919 35.1123V40H141.654V35.1055C141.65 34.5723 141.527 34.1781 141.285 33.9229C141.048 33.6676 140.677 33.54 140.171 33.54C139.761 33.54 139.401 33.6494 139.091 33.8682C138.781 34.0869 138.539 34.374 138.366 34.7295V40H137.102V32.6035H138.298ZM147.896 40.1367C146.893 40.1367 146.077 39.8086 145.448 39.1523C144.819 38.4915 144.505 37.6097 144.505 36.5068V36.2744C144.505 35.5407 144.644 34.8867 144.922 34.3125C145.204 33.7337 145.596 33.2826 146.098 32.959C146.604 32.6309 147.15 32.4668 147.738 32.4668C148.7 32.4668 149.447 32.7835 149.98 33.417C150.514 34.0505 150.78 34.9574 150.78 36.1377V36.6641H145.77C145.788 37.3932 146 37.9834 146.405 38.4346C146.815 38.8812 147.335 39.1045 147.964 39.1045C148.41 39.1045 148.789 39.0133 149.099 38.8311C149.409 38.6488 149.68 38.4072 149.912 38.1064L150.685 38.708C150.065 39.6605 149.135 40.1367 147.896 40.1367ZM147.738 33.5059C147.228 33.5059 146.799 33.6927 146.453 34.0664C146.107 34.4355 145.893 34.9551 145.811 35.625H149.516V35.5293C149.479 34.8867 149.306 34.39 148.996 34.0391C148.686 33.6836 148.267 33.5059 147.738 33.5059Z" fill="#FCFCFC"/>
<defs>
<clipPath id="clip0">
<rect width="21.8933" height="23.1078" fill="white" transform="translate(120.473 3)"/>
</clipPath>
</defs>
</svg>
